/* XPM */
static char *_5f6cbf9a3504b9c92484e7f8b1255b8uu2xV4fWkfEHqQfx[] = {
/* columns rows colors chars-per-pixel */
"32 32 142 2 ",
"   c None",
".  c #7D5F3F",
"X  c #817039",
"o  c #816C4F",
"O  c #9F8833",
"+  c #9F8C3B",
"@  c #9F8A3D",
"#  c #BBA436",
"$  c #B9AC35",
"%  c #CCA62B",
"&  c #CCA82C",
"*  c #CEA82C",
"=  c #D3A729",
"-  c #D2A92A",
";  c #D3A92A",
":  c #D1B02F",
">  c #DAB12C",
",  c #DAB12D",
"<  c #C5A930",
"1  c #C4B235",
"2  c #CFB334",
"3  c #CDB736",
"4  c #CCBC3E",
"5  c #D6B733",
"6  c #D7B833",
"7  c #D3B937",
"8  c #D6BC37",
"9  c #DCB933",
"0  c #DDBB33",
"q  c #D9BB35",
"w  c #D9BC35",
"e  c #D8BD37",
"r  c #DCBE36",
"t  c #DEBC39",
"y  c #DEBD3A",
"u  c #E3BE32",
"i  c #DDC238",
"p  c #DFC438",
"a  c #DCC23D",
"s  c #E4C033",
"d  c #E0C337",
"f  c #E5C234",
"g  c #E5C537",
"h  c #E0C438",
"j  c #E0C539",
"k  c #E1C539",
"l  c #E3C73B",
"z  c #E6C738",
"x  c #E4C93A",
"c  c #EACA38",
"v  c #E8CB3A",
"b  c #E8CC3B",
"n  c #ECCD39",
"m  c #E9CE3C",
"M  c #EED03B",
"N  c #EFD13B",
"B  c #EDD03C",
"V  c #EDD13C",
"C  c #EED03C",
"Z  c #EDD23C",
"A  c #EFD23C",
"S  c #EFD33C",
"D  c #F0D33C",
"F  c #F0D33D",
"G  c #F0D43D",
"H  c #F1D43D",
"J  c #F0D43E",
"K  c #F0D43F",
"L  c #F1D43F",
"P  c #A3905F",
"I  c #A5975E",
"U  c #B9AE66",
"Y  c #BCA97D",
"T  c #D0B841",
"R  c #D7BE47",
"E  c #D6BB58",
"W  c #D7BB58",
"Q  c #D8BE65",
"!  c #DFC540",
"~  c #DCC95E",
"^  c #E9CC44",
"/  c #F1D542",
"(  c #F2D74C",
")  c #F1D74F",
"_  c #F2D850",
"`  c #F3D954",
"'  c #F2D955",
"]  c #F3D955",
"[  c #F3DA5A",
"{  c #F3DB5C",
"}  c #F3DB5F",
"|  c #F4DB5F",
" . c #DCC666",
".. c #EBD463",
"X. c #F4DC60",
"o. c #F0D965",
"O. c #F4DD65",
"+. c #F4DD67",
"@. c #F5DF6D",
"#. c #E2D07F",
"$. c #F6E176",
"%. c #F6E27C",
"&. c #D8CD84",
"*. c #DED187",
"=. c #E1CE86",
"-. c #EADA8E",
";. c #E0D49F",
":. c #E8D898",
">. c #F7E380",
",. c #F7E586",
"<. c #F7E487",
"1. c #F8E589",
"2. c #F8E68A",
"3. c #F8E68B",
"4. c #F8E78E",
"5. c #F8E78F",
"6. c #EFE095",
"7. c #F7E692",
"8. c #F2E494",
"9. c #F9E998",
"0. c #F9E999",
"q. c #E1D5A1",
"w. c #E1D6A2",
"e. c #E2D7A2",
"r. c #E6DBA5",
"t. c #EDDFA1",
"y. c #EFE0A1",
"u. c #EDE1AA",
"i. c #EEE2AB",
"p. c #F2E5A8",
"a. c #F0E4AC",
"s. c #F3E7AF",
"d. c #FBEDA9",
"f. c #FBEDAB",
"g. c #FBEEAC",
"h. c #FBEEAE",
"j. c #FBEEAF",
"k. c #F7ECB3",
"l. c #FCEFB3",
"z. c #FBEFB5",
"x. c #FCF0B5",
"c. c #FCF0B6",
/* pixels */
"                                                                ",
"                                                                ",
"                                                                ",
"                                                                ",
"                                                                ",
"                                                                ",
"                                                                ",
"                                        Y o                     ",
"                                        I .                     ",
"                                        &.@                     ",
"                                    r.8.*.1 $                   ",
"                                  i.h.~ 7.< m                   ",
"                              w.c.l...6.%.2 G C T               ",
"                          w.k.c.l.o.-.4.,.k z D C               ",
"                    w.u.c.c.c.,.^ =.x.d.` v 0 D G               ",
"              ;.a.c.c.c.h.>.) t =.1.4.+.D q s D G e             ",
"            s.c.z.h.2.| G g W y.$.$.O.G D % v G G e             ",
"          z.d.>.{ D D 6 W :.9.[ @.( G G 5 > D D G               ",
"        P X.G G D u Q t.9.X.` [ G G G r - C G D x               ",
"            a !  .a.4.` S / D D G G 6 ; n G D D 7               ",
"              U 1.( G G D D D D d * > M G G D l                 ",
"              + C C D G D D e * ; s D G G G b                   ",
"                3 p k i $ O 5 u D G G G G k                     ",
"                          . 4 D G G G k                         ",
"                                R                               ",
"                                                                ",
"                                                                ",
"                                                                ",
"                                                                ",
"                                                                ",
"                                                                ",
"                                                                "
};
