/* XPM */
static char *_05081e6fc344723e62d4cd5f593aa6dtI95LP8JQMbge1sk[] = {
/* columns rows colors chars-per-pixel */
"32 32 11 1 ",
"  c #170A01",
". c #231107",
"X c #2C170A",
"o c #422632",
"O c #733D3B",
"+ c #F77622",
"@ c #D77643",
"# c #FDAE35",
"$ c #C28569",
"% c #FEE861",
"& c #EBD4AB",
/* pixels */
"                                ",
"..XXXXX... XXXXXXXXXXXXXXXXXXXX ",
".XXXXXXXXX XXXXXXXXXXXXXXXXXXXX ",
".XXXXXXXX###XXXXXXXXX###XXXXXX. ",
".....XXOO###OOOOOOOOO###OO..... ",
"       OO###OOOOOOOOO###OO      ",
"       oo#%#ooooooOoo#%#ooXXX...",
"     ##OO%%%OOOOOOOOO%%%OO##....",
"     ##OO%%%OOOOOOOOO%%%OO##....",
"     ##OO###OOOOOOOOO###OO##....",
"     ##oo###ooOoooooo###oo##    ",
"... .##OO###OOOOOOOOO###OO##... ",
"... X##OO##+OOOOOOOOO+#+OO## ...",
"... X##oo+++OooooOOOo+++oo#%  ..",
"... X##oo+++ooooooooo+++oo#% .. ",
"     ####################%%%    ",
"     +++++++++++++++++++++++    ",
"      @@ooooooo###ooooooo@@XXXX.",
"     +##oOOOoOO###OOoOOOo##+XX..",
"     +##oOOOoOO$%$OOoOOOo##+XX..",
"     +##OOOOoOOo+oOOOOOOo##+....",
"      ##OOOOoO&o&o&OoOOOO##     ",
"......##oOOOOO&&&&&OoOOOO##.... ",
"......##oOOOoO$$$$$OoOOOo##XXXX ",
"......##oOOOoO$$o$$OoOOOo##XXXX ",
".....#########$$$$$########%XXX ",
"     ###############%#%%#%%%    ",
" ....+++++++++++++++++++++++    ",
" ...........                    ",
" ...........                    ",
" ........... ..            .    ",
"                                "
};
