/* XPM */
static char *cb5c4d3147164982b71d8857c13a6aedDwVUawF4lld137At[] = {
/* columns rows colors chars-per-pixel */
"32 32 6 1 ",
"  c #170A01",
". c #231107",
"X c #2C170A",
"o c #D77643",
"O c #FDAE35",
"+ c #FEE861",
/* pixels */
"                                ",
"..XXXXX... XXXXXXXXXXXXXXXXXXXX ",
".XXXXXXXXX XXXXXXXXXXXXXXXXXXXX ",
".XXXXXXXXX XXXXXXXXXXXXXXXXXXX. ",
".....XXXXX XXXXXXXXXXXXXX...... ",
"                                ",
"               ......XXXXXXXX...",
"               XXXXXXXXXXXXX....",
"               XXXXX+++XXXX.....",
"               .XX++ooo++.......",
"                  ooooooo       ",
"... ...XXXXXXXXXX+ooXXXoo+  ... ",
"... XXXXXXXXXXXXXooX... oo   ...",
"... XXXXXXXXXXXX.oo.... oo    ..",
"... XXOOOOOOOOOOOooXXX. oo   .. ",
"      +++++++++++oo     oo      ",
"      OOOOOOOOOOOoo     oo      ",
"      oooooooooooooXXXXXooXXXXX.",
"       ooo       ooXXXXXooXXXX..",
"       oo        oo+XXX+ooXXXX..",
"       oo        .oo+++ooXXX....",
"                  ooooooo       ",
"....... XXXXXXXXXXoooooX....... ",
"....... XXXXXXXXXXXXXXXXXXXXXXX ",
"....... XXXXXXXXXXXXXXXXXXXXXXX ",
"....... ......XXXXXXXXXXXXXXXXX ",
"                                ",
" ...........       .....        ",
" ...........                    ",
" ...........                    ",
" ........... ..            .    ",
"                                "
};
