/* XPM */
static char *_d806c95bcab4a8ac6b51bf118b9abe5XCWhVQwon1wtOCYa[] = {
/* columns rows colors chars-per-pixel */
"32 32 237 2 ",
"   c #1D110E",
".  c #1C1A1A",
"X  c #181615",
"o  c #2A140C",
"O  c #351508",
"+  c #271B14",
"@  c #2C1D15",
"#  c #241D1C",
"$  c #2B1D1B",
"%  c #2A171B",
"&  c #3A1F16",
"*  c #2B221C",
"=  c #272719",
"-  c #33221B",
";  c #39241A",
":  c #2B3A1B",
">  c #30331E",
",  c #252323",
"<  c #2C2423",
"1  c #2C2A24",
"2  c #2C2C2C",
"3  c #372C23",
"4  c #3D2A22",
"5  c #342D2B",
"6  c #382B27",
"7  c #3C3127",
"8  c #32322C",
"9  c #3D342B",
"0  c #3B3928",
"q  c #343332",
"w  c #3B3433",
"e  c #3A393A",
"r  c #3A3839",
"t  c #491E10",
"y  c #4A1A00",
"u  c #462816",
"i  c #58371C",
"p  c #4F2E14",
"a  c #432C24",
"s  c #462D26",
"d  c #562B24",
"f  c #483629",
"g  c #5C3A25",
"h  c #5C3A29",
"j  c #563426",
"k  c #4B3730",
"l  c #453A37",
"z  c #593E34",
"x  c #643D2B",
"c  c #653527",
"v  c #673E32",
"b  c #344322",
"n  c #5E461A",
"m  c #73490F",
"M  c #444A2C",
"N  c #56452C",
"B  c #43413E",
"V  c #4B463A",
"C  c #5A4439",
"Z  c #4C5A3C",
"A  c #565A3A",
"S  c #63422D",
"D  c #69462B",
"F  c #654333",
"G  c #6A4534",
"H  c #64453A",
"J  c #6C4A3C",
"K  c #65483A",
"L  c #734B35",
"P  c #744C3A",
"I  c #7A4C3B",
"U  c #734536",
"Y  c #665639",
"T  c #76503A",
"R  c #7D533D",
"E  c #774F2C",
"W  c #47613E",
"Q  c #3F3E44",
"!  c #434243",
"~  c #4D4849",
"^  c #564B47",
"/  c #585749",
"(  c #514E53",
")  c #5B595A",
"_  c #595854",
"`  c #4E4E4F",
"'  c #7A4F44",
"]  c #745141",
"[  c #7C5442",
"{  c #7C5B48",
"}  c #635559",
"|  c #765B53",
" . c #624F48",
".. c #586548",
"X. c #75624D",
"o. c #6C6251",
"O. c #675D65",
"+. c #636362",
"@. c #7D7975",
"#. c #777471",
"$. c #746F6C",
"%. c #9A6112",
"&. c #B67A16",
"*. c #81553E",
"=. c #865530",
"-. c #8A6B37",
";. c #956934",
":. c #AC7934",
">. c #8D540D",
",. c #835944",
"<. c #84524A",
"1. c #845C49",
"2. c #8B5B4A",
"3. c #875545",
"4. c #975F49",
"5. c #8C5D55",
"6. c #85624C",
"7. c #8D624D",
"8. c #93654D",
"9. c #9F694F",
"0. c #846354",
"q. c #8D6653",
"w. c #87695A",
"e. c #916454",
"r. c #956C55",
"t. c #9A6D55",
"y. c #926D5C",
"u. c #9C6C5B",
"i. c #9B6555",
"p. c #9C715A",
"a. c #97725C",
"s. c #8D774F",
"d. c #A46D59",
"f. c #A3745D",
"g. c #AB765B",
"h. c #AB785C",
"j. c #B1795E",
"k. c #8C7264",
"l. c #9E7C69",
"z. c #997565",
"x. c #807C79",
"c. c #9B7D73",
"v. c #916D64",
"b. c #A06F61",
"n. c #A47363",
"m. c #AB7362",
"M. c #A57961",
"N. c #AB7B63",
"B. c #AC7E69",
"V. c #A67D6D",
"C. c #B37B61",
"Z. c #B77B67",
"A. c #C07F6D",
"S. c #BF963C",
"D. c #CC8B19",
"F. c #D89B23",
"G. c #C88D37",
"H. c #DFA42E",
"J. c #F7B932",
"K. c #FFC839",
"L. c #83817D",
"P. c #9E8978",
"I. c #AC846A",
"U. c #BC8266",
"Y. c #B4846C",
"T. c #BB846C",
"R. c #B48A6C",
"E. c #BD896F",
"W. c #B38166",
"Q. c #AA8673",
"!. c #AE8A7A",
"~. c #B48773",
"^. c #BB8B73",
"/. c #BB8D7B",
"(. c #B58A75",
"). c #BC927A",
"_. c #B6917F",
"`. c #A4947B",
"'. c #C79852",
"]. c #E7A746",
"[. c #EAB64D",
"{. c #ECB559",
"}. c #C28567",
"|. c #C2866A",
" X c #C58A6D",
".X c #C88A6C",
"XX c #C88C65",
"oX c #CB8D72",
"OX c #C58B77",
"+X c #CA9274",
"@X c #C3937C",
"#X c #C99479",
"$X c #D29275",
"%X c #D5957A",
"&X c #D39A7C",
"*X c #DB9A7C",
"=X c #D8977B",
"-X c #EABA70",
";X c #FDC848",
":X c #FBC364",
">X c #888683",
",X c #A98B81",
"<X c #AB9484",
"1X c #BD9382",
"2X c #B49485",
"3X c #CC9C84",
"4X c #C99985",
"5X c #DA9E83",
"6X c #D59A84",
"7X c #C6938B",
"8X c #E39E8D",
"9X c #C9A18A",
"0X c #DCA283",
"qX c #DCA48B",
"wX c #D7A789",
"eX c #CAA995",
"rX c #D5AA95",
"tX c #DFAB95",
"yX c #D7B59E",
"uX c #E2A585",
"iX c #E2A38A",
"pX c #E3AC8B",
"aX c #EDAA8F",
"sX c #E8A696",
"dX c #E2B394",
"fX c #D8BAA5",
"gX c #CFAAA2",
"hX c #E6BDA9",
"jX c #EFC58F",
"kX c #DFC3AD",
"lX c #EBC2AC",
"zX c #E7C8B4",
"xX c #F3CEBA",
"cX c #F4D2BE",
"vX c #F4D2B0",
"bX c #F1D6C2",
"nX c #FAD8C5",
/* pixels */
"l e / #.@.@.>XL._ 2 ! ! e ! r ~ ^ 0 7 l l l } } O.( Q Q ` Z M A ",
"e w ` $.@.L.x.>X+.2 e ! 2 r ~ ^ f 3 7 l k } ^ ~ } ( ~ Q ` _ / M ",
"w q ! $.@.@.#.+.! 8 r B w 5 l 9 f l V B ! ^ ^ / ) +.~ Q ` B > 0 ",
"r q r +.) e q w 5 5 < * - + @ & a a a C k ; M f l ~ q l B ` 1 ..",
"Q Q 2 , 2 r 1 , *     + o s z ] q.u.5.,.Q.z.`.6.N p o - 0 0 > Z ",
"r q 2 , , . . . + - s z u 0.0.z.@XT.m.T.~.+X&X9XR.).V.X.f M > ..",
", , X X . X 1 * - ^ | H  .!.V./.4X3X3X@X^.+X#XpXwXwXrXeX<XA = A ",
"X X 2 , , . < 3 ^ k.P.F 1.R.~.3X4X~.Q.).(.^.E.&XwXdXrX2XX.A : W ",
", q 2 , , , < k w.,X!.I t.W.W.f.7.S z h v e.M.Y.@X9X2XK M V b W ",
", q 2 . # # 6  .c.2X8.i.E.Y.g.8.R y.!.Q.J p I u.Y.7Xl.k.`.0 b ..",
", 2 , . < * f | !./.2.C.W.oXoXg.^.@X7XOX/.P R 2.N.n.a.z.`.M M A ",
"= 2 , , * < 4 0./.m.9.j. XU.j.U.j.3.I ' e.b.U u.B.p.[ h X.s.Y ..",
". < < * % - j v./.d..X}..X|.C.g.9.8.8.R c <.3.Y.4Xr.G N w.X.Y N ",
"# # < 5 $ - s z.N.g.}.}.$X|.j.W.W.p.f.n.d.<.d.3XwXR.I.0.w.K C k ",
"< # < 9 6 4 u q.h.|..X$X*XqX6XY.m.T.#Xm.m.Z.U.wXrXI.y.y.,XH ; a ",
"$ $ - 4 a H G 2.h. XXX=X0X*X0XqX5XoXZ.m.Z.OX5X*XwXwXl.l.z.k 4 4 ",
"s o & s s D q.t.T..X=X*X*X=X*XuXuXpX=X|.A.%X6X8X8XuXR.).,Xs ^ 4 ",
"z O & C S S 8.I.|.oX=X*X*X*XuXiXqX&X&XU.A.A.A.%X*XpXqXrX9X4 k z ",
"| j u j D G 8.W.U..X+X$X=X*X5X0X6XOXT.T.4.oX8X8XaXuXpX3XgXs 4 4 ",
"c. .j J 6.L 8.W.|. X.XoX%X&X#X#X/.B.b.*.A.8XsX8XaX5XiX(.gXa - 5 ",
"5.H H q.I.7.h.T. X|..XoX#XT.W.B.b.e.<.U m.7X7XA.6XOX4XV.,X& - 5 ",
"v 0.J q.M.@Xh.U.|.}.|. XU.f.t.e.' <.5.' v *.<.<.i.b.n.y.w.@ @ . ",
"F l.q.r.f.#Xh.U.}.j.W.C.t.8.2.I U q.z.| ' c d d ' ' 1.{ z * * = ",
"j 6.!.f.N.N.+XU.U.j.h.d.2.1.[ x 3.u.b.5.u.{  .v v.' n Y - $ * * ",
"D T (.I.p.g.OXj.j.N.g.r.,.q.G j c v L P { { 1.y.z.D -.n 3 % + = ",
"T q.7.^.N.h.h.E.N.f.t.8.1.q.P u t c G i i i h L E ;.jX:.; o @ = ",
"T t.q.R.f.p.M.R.).I.r.6.6.y.[ 1.3.<.I.t.7.p.8.g.;.-X'.=.p p ; @ ",
",.8.p.W.yXR.f.rXwXyXr.X.7.1.,.2.e.b.M.r.h.@X^.+X{.{.%.:.m -.i O ",
"*.r.t.r.lXlX9XhXeXfXeXX.[ q.2.2.5.5.u.Q.r.e.Z.XX:X&.].&.J.S.n O ",
"*.t.r.p.lXnXxXcXkXfXkX9XR q.2.2.<.e.,.I { ,.2.XX{.F.&.J.;X[.:.y ",
"*.t.p.y.xXnXzXbXbXkXfXfX9Xr.d.i.3.I ,.P ] [ d.jX:XF.D.;XK.;XG.>.",
"R.p.p.f.cXnXnXbXbXzXfXfXfX4Xf.^.f.P F H F ] 7XvX{.H.J.K.K.K.[.G."
};
