/* XPM */
static char *b5b9d4ecf1b54bc98a6ce877c568314bIOD8U1utbYTLrdHO[] = {
/* columns rows colors chars-per-pixel */
"32 32 247 2 ",
"   c #126F0E",
".  c #197515",
"X  c #146A1A",
"o  c #287B1A",
"O  c #237F0B",
"+  c #0C5A37",
"@  c #1E6D2D",
"#  c #1A6827",
"$  c #1E7622",
"%  c #1D653C",
"&  c #1A6839",
"*  c #1C7437",
"=  c #267727",
"-  c #31792E",
";  c #246C3C",
":  c #22693B",
">  c #257C34",
",  c #287339",
"<  c #357D3D",
"1  c #1D5F50",
"2  c #1A5E4F",
"3  c #196743",
"4  c #266D45",
"5  c #296D42",
"6  c #276B4B",
"7  c #256648",
"8  c #306E4D",
"9  c #2C7243",
"0  c #2C7A44",
"q  c #2D7249",
"w  c #297648",
"e  c #327446",
"r  c #337A42",
"t  c #3C7B44",
"y  c #34734A",
"u  c #367C4A",
"i  c #3B7C4A",
"p  c #3C7448",
"a  c #3C7A56",
"s  c #306B54",
"d  c #427857",
"f  c #298319",
"g  c #338B1A",
"h  c #398B18",
"j  c #3F9B13",
"k  c #3C9D1D",
"l  c #3A9518",
"z  c #308C0D",
"x  c #3AA111",
"c  c #288725",
"v  c #358A25",
"b  c #3C8C23",
"n  c #3C8A2B",
"m  c #348728",
"M  c #3D9524",
"N  c #3C9B23",
"B  c #3B942A",
"V  c #3E9C2B",
"C  c #359526",
"Z  c #2B8434",
"A  c #318B35",
"S  c #34833B",
"D  c #3B833D",
"F  c #3C8B3C",
"G  c #358637",
"H  c #2E9235",
"J  c #379735",
"K  c #2D9024",
"L  c #3CA528",
"P  c #3CA235",
"I  c #36B73F",
"U  c #489A16",
"Y  c #509D17",
"T  c #49A61D",
"R  c #56A91E",
"E  c #56B31C",
"W  c #449625",
"Q  c #449A24",
"!  c #459B2D",
"~  c #4A982A",
"^  c #509C2F",
"/  c #448B3A",
"(  c #448B37",
")  c #42933C",
"_  c #439C3B",
"`  c #489837",
"'  c #539935",
"]  c #438A22",
"[  c #4BA323",
"{  c #46A42A",
"}  c #4CA32A",
"|  c #4BAB2A",
" . c #45A827",
".. c #54A32B",
"X. c #53AB2B",
"o. c #57A826",
"O. c #54B327",
"+. c #53B32C",
"@. c #58B32C",
"#. c #58B92B",
"$. c #44A234",
"%. c #4BA334",
"&. c #4DAE3C",
"*. c #47A43A",
"=. c #54A633",
"-. c #54AA3C",
";. c #58A937",
":. c #4DB23C",
">. c #4AB639",
",. c #59BA32",
"<. c #55B43A",
"1. c #5BB43B",
"2. c #57B837",
"3. c #4AB526",
"4. c #65B72A",
"5. c #63B53B",
"6. c #65BC3A",
"7. c #6AB43A",
"8. c #73BB39",
"9. c #6AB12D",
"0. c #59C32F",
"q. c #57C638",
"w. c #66C33B",
"e. c #67C838",
"r. c #76CC34",
"t. c #2E814A",
"y. c #368343",
"u. c #3B8444",
"i. c #3E8A45",
"p. c #3B874A",
"a. c #3B9544",
"s. c #28AA44",
"d. c #3CB544",
"f. c #3CAB46",
"g. c #448545",
"h. c #428B44",
"j. c #458B4B",
"k. c #47864C",
"l. c #52864E",
"z. c #528C4C",
"x. c #469444",
"c. c #4A9647",
"v. c #52934C",
"b. c #579746",
"n. c #498852",
"m. c #548A56",
"M. c #549155",
"N. c #599650",
"B. c #4B9355",
"V. c #649E58",
"C. c #4BAA45",
"Z. c #48A848",
"A. c #57AB46",
"S. c #4DBB44",
"D. c #4BB646",
"F. c #53B34C",
"G. c #56B948",
"H. c #58BA54",
"J. c #67A947",
"K. c #78AF4D",
"L. c #63BC44",
"P. c #62BB4A",
"I. c #6AB449",
"U. c #78BA46",
"Y. c #63A250",
"T. c #73A655",
"R. c #69B754",
"E. c #79BC56",
"W. c #5A8A60",
"Q. c #4EC347",
"!. c #5CC44A",
"~. c #57C547",
"^. c #5BC451",
"/. c #5ACA52",
"(. c #62C34C",
"). c #6ACB4D",
"_. c #67C846",
"`. c #74C54C",
"'. c #76C745",
"]. c #69D24A",
"[. c #68D64A",
"{. c #77D549",
"}. c #6BC554",
"|. c #7BC353",
" X c #73CC53",
".X c #7AC95A",
"XX c #6BD553",
"oX c #7BD351",
"OX c #76D855",
"+X c #7DE24F",
"@X c #85C13E",
"#X c #9DD63C",
"$X c #ABDE3E",
"%X c #85BA49",
"&X c #80AF54",
"*X c #87B758",
"=X c #93BD5A",
"-X c #9ABE63",
";X c #8AC341",
":X c #8BC34B",
">X c #85C94B",
",X c #94CB4E",
"<X c #97C84B",
"1X c #86D64A",
"2X c #99D648",
"3X c #84C352",
"4X c #84CC52",
"5X c #8AC95A",
"6X c #9CCD53",
"7X c #97C75A",
"8X c #84DB52",
"9X c #86D557",
"0X c #95D254",
"qX c #9BD353",
"wX c #93DC55",
"eX c #9BDF5D",
"rX c #96D75A",
"tX c #A5D84A",
"yX c #A2CC53",
"uX c #A4D55A",
"iX c #A9D559",
"pX c #A6DA57",
"aX c #B1D95D",
"sX c #A1CB4F",
"dX c #8BE358",
"fX c #9BE452",
"gX c #95E55B",
"hX c #A8E949",
"jX c #ADE456",
"kX c #ADE45C",
"lX c #A2E95A",
"zX c #A7EB58",
"xX c #B4EB5A",
"cX c #B8E758",
"vX c #B9F85A",
"bX c #B1E44D",
"nX c #93C762",
"mX c #9AD361",
"MX c #A4D362",
"NX c #A5DD65",
"BX c #B5DE68",
"VX c #B9E664",
"CX c #B7EB71",
"ZX c #CAF85E",
"AX c #D4FF59",
"SX c #C3E956",
"DX c #C9EF67",
/* pixels */
"6 4 5 7 7 < W x k =.:XiX Xs.s.4XZX<XU X.tXxX).D.4XsX8.>.S.6.X.j ",
"g.h.i.p.u i./ g f o.2XcXgX[.].eXmXK.N ~ K.7XoX9XkXqX5.! &.&.! c ",
"-.A.A.G.R.A.j.@ . R tXVXkXhXzX7XV.u.M M / M.3XZXZX7Xz.A N W G ; ",
"q.S.G.dXvXrXv.& = 4.,X*X=XyXsXT.8 = C V > 4 Y.$XhXT.a : o b g.d ",
"!.S.(.fXZX2X-.J >.P.v.y p l.l.t - v { :.*.J b U T ' i 7 : / K.-X",
" XoX0XuX7XU.5.e.XXH.p., , t.u S ! O.6.).].e.o.h z h ( 7 2 N.uXAX",
"rXjXcX7Xz.x.I.1XOX^.Z.&.P $.F.D.>.,._.).[.{.,X8.] g G 6 1 N.qXAX",
"%XyXyXJ.0 j.*XwX`./.OXoX1.X._.].(.L.P.Q.S..XVXpXo.m r 8 ; ( J.=X",
"k.l.l.y.m A.0XuX3X{.gX5XN.G $.w.4X.X(.Q.G.nXBX2X9.Z 9 t n v D d ",
"* 9 q S  .r.2XcXNXwXr.J.y 3 Z O.'.5X9X{.fXcXcX2XR o , D } Q Z 6 ",
"H _ Z.*. .4.#XDXCX>XO.m ; 8 J  .+.`.NXxXbXcXSX2XR O o ] =.| $.J ",
"@.e.].<.v ( K.mX0Xo.h = ; u._ { C =.;XyX7X7X7X*X` f z T :.:.2.6.",
"@.6.[.G.S q d b.~ h - ; 4 r g.G K j Y ' z.l.M.n.y S } ,.~.G.<.,.",
"J G.(.R.j.4 % = g v p.p.u u 8 e b j z o @ : % 9 r r a.G.{.].:.P ",
"D.!. X3XB.; . g } :.Z.x.i.s s e W | | N f # : r m - , B.oX+X~.Z.",
" X8X1XI.i < ~ O.2.}.].5.< 3 5 ` -.D.A.#.E ! r < l l m p V.4X8X+X",
"VXtX9.c : n.5.,.>.`.wX:Xg.+ = @._.H.&.,.e.G.j.9 v #.#.S e Y.0XZX",
"aX;XT   @ c.H.d.>.'.pXMXT.D b @.].G.&.2./.H.p., _ {.[.*.* h.%XpX",
"8.1.Q f o ! C.~.!.(. XrXMX:X@.<.).`.(.(.).S.v n I.9X+X>.J _ ;.I.",
"K V ^ Y h N _.gXOXQ.I  XkXqX1.<.4XrX)./.XXG.j Y r.mX.XH.6.6.+.L ",
"  M 7.7.! } ;XxXmXS.d.XXgX'.! ;.tXpX)./. X`.U U ;XMX5X|.,X,X6.L ",
"z o.U.4X_.1.U.BXkX1X XeXrX'.Q ~ %X0X9XoX1X5.m ~ ,XxXfXfXcXqXP.J ",
"j o.'.gX+XS.x.T.iXcXkXkXjX,Xb.= V '.pX2X4.g @ v.rXfXfXlXxX5Xz.% ",
"c m ;.oX Xa.3 u &X6X:X<X6X-XW.3 c 6.qX%X] X & M.R.I.I.|.|.A.i.4 ",
"3 > B } x.0 4 9 k.v.^ ..b.m.d 0 J ,.9.` , : 0 i i i p.k.i h._ *.",
"d c.$.V < d g.y.4 , n N > & , ( ;. .k C h.k.u 9 e i.y.9 8 F %.O.",
"=X:X`.&._ =.;.) 0 r ` | K $ c Q [ Q V +.<.c.u e c.-.%._ x._  .T ",
"SXbXdX^.S.q.0.*.r y _ @.4.9... .L ! -.1.+.$.i.i.$.3.+.2.,.+.} W ",
"cXkXwX X!.~.0.=.u 4 H e.2X6X`.q.2.G.v.D ! 2.H.C.C j [ | T +.8.|.",
"uXqX,X4X XP.<.F < y.*.'.qX5X}.XXXXH.u : J !.[.(.;...~ f f ` 4XlX",
"uXyX6XqX1XE.c., H 1.>X0X4X(.!.OXOXF.w e F.[.[.}.3X@Xo.. # v.|.fX",
"cXiXiXjXfXE.z.3 J r.bXuX).Q.Q.XX{.Z.0 j.(.[.~.|.BXbX9.. + M.E.1X"
};
