/* XPM */
static char *_8e0fa1c267a4db199723a74b844a5975eyhf9mQLyIgzFv7[] = {
/* columns rows colors chars-per-pixel */
"32 32 10 1 ",
"  c #170A01",
". c #231107",
"X c #2C170A",
"o c #4A682C",
"O c #252B43",
"+ c #3A4467",
"@ c #BF4830",
"# c #F77622",
"$ c #0099DC",
"% c #EBD4AB",
/* pixels */
"           ++++++++++++         ",
"..XXXXX... ++++++++++++XXXXXXXX ",
".XXXXXXXX++++++++++++++++XXXXXX ",
".XXXXXXXX++++++++++++++++XXXXX. ",
".....XXXX++++++++++++++++...... ",
"         ++++++++++++++++       ",
"         ++++++++++++++++XXXX...",
"         OO++++++++++++OOXXX....",
"       @@OOOOOOOOOOOOOOOO@@.....",
"       @@OOOOOOOOOOOOOOOO@@.....",
"       @@OOOOOOOOOOOOOOOO@@     ",
"... ...@@OO@@@@@@@@@@@@OO@@ ... ",
"... XXX@@OO@@@@@@@@@@@@OO@@  ...",
"... XXXXX@@@@OO@@@@OO@@@@     ..",
"... XX###@@@@OO@@@@OO@@@@### .. ",
"     ####@@@@OO@@@@OO@@@@####   ",
"    #####OO@@@@@@@@@@@@OO#####  ",
"    #####OO@@@@@@@@@@@@OO#####X.",
"    @####OOOOO@%%%%@OOOOO####@..",
"    @@@@#OOOOO@@@@@@OOOOO#@@@@..",
"    @@@@####OOOOOOOOOO####@@@@..",
"    @@@@####OOOOOOOOOO####@@@@  ",
"....@@@@##################@@@@. ",
"....@@@@##################@@@@X ",
".....@@@##################@@@XX ",
".......####################XXXX ",
"       $$################$$     ",
" ......$$$$$$$$$  $$$$$$$$$     ",
" ......@@@@@@@@    @@@@@@@@     ",
" ......@@@@@@@@    @@@@@@@@     ",
" ......%oooo%..      %oooo%.    ",
"       %%%%%%        %%%%%%     "
};
