/* XPM */
static char *f4838bcbec44431396ead4c00df110fcRiW7wRdDeAswuIcl[] = {
/* columns rows colors chars-per-pixel */
"32 32 34 1 ",
"  c #BCBCBC",
". c #C0C0C0",
"X c #C1C1C1",
"o c gray77",
"O c #C5C5C5",
"+ c gray78",
"@ c gray79",
"# c #CACACA",
"$ c #CDCDCD",
"% c #CECECE",
"& c gray82",
"* c #D2D2D2",
"= c gray83",
"- c #D5D5D5",
"; c #D7D7D7",
": c gray85",
"> c #DADADA",
", c #DDDDDD",
"< c #DFDFDF",
"1 c #E1E1E1",
"2 c #E2E2E2",
"3 c #E4E4E4",
"4 c gray90",
"5 c #E6E6E6",
"6 c #E6E7E7",
"7 c #E7E8E8",
"8 c #E9E9E9",
"9 c #EAEAEA",
"0 c gray93",
"q c #EFEFEF",
"w c gray94",
"e c #F0F0F1",
"r c #F1F1F1",
"t c gray95",
/* pixels */
"eq2*666655535#9rrrwrrrrr*rrrrrrr",
":**o$$$@%#%%#.;>>;-;%*%%o;;>:;*>",
"7626696;%535333593#1555955555+95",
"6666336:%333553553#>535335555+55",
"3335655>%313333535%>633155555+31",
"*%%%*%%%.$#%#%%;%%##%;%*%*%%%o%#",
"e91@333331353#5559rrwrwr#ww5995w",
"wr1*335535335#9rwr9rwrww#wr9rwww",
"we4*513555535%rrrrwwwrwr%wwrrwww",
"-*;#****%%%+%#>>1>**%%%%+1;>>>;;",
"331>131**95wr95935%133593>513o3>",
"5555335>:wwwrrrrwr*>335333553+35",
"4343533>*rwwwrrwrr;;555555553o33",
"-**%%*%#+;;;;;>>;;+#%%%#%%*#%.%%",
"56;#633441335+;333553531o1131513",
"55;%333133335#1435555333o3333333",
"33;%353333133#1535555533+3533531",
"%%#o%%*%*%%#%.%%%%*%%##*o%*%%%##",
"99w99991#1>1131555+;595w95w99ow3",
"rrwwrrw>%333335553#5rrrrrw9wr+ww",
"rrrr9ww3%533533555%3wwrwwwwwr%rw",
"1;;11;;*+;%*%**%*%+%*;>>>;1;1+>>",
"w5:*>1>131333#111>33>11>o3555995",
"9w1-133133535+;113155533+95w9rrr",
"ww3*533355355#3135353335#rwww9rr",
"11*o-%%***;**+%*%%**%@*%o>;;;>>;",
",551343.9333953959o31333>351>+51",
"4331655+wwwrrrrrrr+5333335511+33",
"5536354#ww5rwwwwrw+5533555333+53",
"*#%**##o>>%>>;1111 %;%#*%#*%# %#",
"rw1*>35533555%33599wrrrr#r9r9w9w",
">>%*535555555#9rrwrwrrrr#rrrrrww"
};
